# 3ds Max Wavefront OBJ Exporter v0.97b - (c)2007 guruware
# File Created: 25.01.2018 13:52:17

#
# object light
#

v  -5.0848 0.8216 -6.6783
v  1.4088 0.8216 -4.9981
v  -0.0975 0.8216 0.8231
v  -1.6525 13.6126 6.8327
v  -0.0975 13.6126 0.8231
v  -8.1461 13.6126 5.1525
v  -5.0848 13.6126 -6.6783
v  1.4088 13.6126 -4.9981
v  1.4088 7.2645 -4.9981
v  -8.1461 0.8216 5.1525
v  -1.6525 0.8216 6.8327
v  -1.6525 7.2645 6.8327
v  0.9949 11.6254 -3.3988
v  -0.0975 13.1490 0.8231
v  8.9161 13.1490 3.1554
v  9.0726 11.6329 -1.3001
v  -1.1899 11.6254 5.0450
v  -1.5702 7.2974 6.5146
v  4.3298 7.2974 8.0413
v  6.8919 11.6329 7.1276
v  1.3752 7.2974 -4.8685
v  7.2752 7.2974 -3.3418
# 22 vertices

vn 0.0000 -1.0000 -0.0000
vn 0.0000 1.0000 -0.0000
vn 0.2505 0.0000 -0.9681
vn -0.9681 0.0000 -0.2505
vn -0.2505 0.0000 0.9681
vn 0.1773 0.7074 -0.6842
vn -0.0001 1.0000 -0.0002
vn 0.1561 0.7815 -0.6041
vn -0.1772 0.7074 0.6842
vn -0.2364 0.3310 0.9136
vn -0.2359 0.3315 0.9135
vn -0.1562 0.7814 0.6042
vn 0.2368 0.3313 -0.9133
vn 0.2363 0.3321 -0.9132
# 14 vertex normals

vt 0.1981 0.5553 0.0000
vt 0.0020 0.5553 0.0000
vt 0.0020 0.3795 0.0000
vt 0.7685 0.1980 0.0000
vt 0.7686 0.3795 0.0000
vt 0.5724 0.1981 0.0000
vt 0.5724 0.5553 0.0000
vt 0.5724 0.7514 0.0000
vt 0.3867 0.7514 0.0000
vt 0.1981 0.1981 0.0000
vt 0.1982 0.0021 0.0000
vt 0.3867 0.0020 0.0000
vt 0.0020 0.1980 0.0000
vt 0.1982 0.7513 0.0000
vt 0.5724 0.0020 0.0000
vt 0.7685 0.5554 0.0000
vt 0.8490 0.9980 0.0000
vt 0.7140 0.9980 0.0000
vt 0.7140 0.7257 0.0000
vt 0.8487 0.7539 0.0000
vt 0.5789 0.9980 0.0000
vt 0.4448 0.9980 0.0000
vt 0.4448 0.8198 0.0000
vt 0.5792 0.7539 0.0000
vt 0.9832 0.9980 0.0000
vt 0.9832 0.8198 0.0000
# 26 texture coords

g light
s 2
f 1/1/1 2/2/1 3/3/1 
s 4
f 4/4/2 5/5/2 6/6/2 
s 16
f 7/7/3 8/8/3 9/9/3 
s 32
f 1/1/4 10/10/4 6/6/4 7/7/4 
s 64
f 10/10/5 11/11/5 12/12/5 
s 2
f 3/3/1 11/13/1 10/10/1 
f 3/3/1 10/10/1 1/1/1 
s 16
f 9/9/3 1/1/3 7/7/3 
f 9/9/3 2/14/3 1/1/3 
s 64
f 12/12/5 4/15/5 6/6/5 
f 12/12/5 6/6/5 10/10/5 
s 4
f 5/5/2 8/16/2 7/7/2 
f 5/5/2 7/7/2 6/6/2 
s 1
f 13/17/6 14/18/7 15/19/7 16/20/8 
f 17/21/9 18/22/10 19/23/11 20/24/12 
f 21/25/13 13/17/6 16/20/8 22/26/14 
f 14/18/7 17/21/9 20/24/12 15/19/7 
# 5 polygons - 12 triangles

#
# object glow
#

v  -1.6525 0.8216 6.8327
v  -0.0975 0.8216 0.8231
v  -0.0975 1.4799 0.8231
v  -1.1722 2.9742 4.9765
v  1.4088 0.8216 -4.9981
v  1.4088 7.2645 -4.9981
v  1.3516 7.2645 -4.7770
v  0.9772 2.9742 -3.3304
v  1.4088 13.6126 -4.9981
v  -0.0975 13.6126 0.8231
v  -0.0975 13.0490 0.8231
v  0.9772 11.5547 -3.3304
v  -1.6525 13.6126 6.8327
v  -1.6525 7.2645 6.8327
v  -1.5466 7.2645 6.4232
v  -1.1722 11.5547 4.9765
v  -0.0975 2.0817 0.8231
v  -1.0604 3.4205 4.5445
v  1.2008 7.2645 -4.1945
v  0.8654 3.4205 -2.8983
v  -0.0975 12.4473 0.8231
v  0.8654 11.1084 -2.8983
v  -1.3958 7.2645 5.8406
v  -1.0604 11.1084 4.5445
v  -0.5904 2.0817 0.6955
v  -1.5534 3.4205 4.4169
v  0.7079 7.2645 -4.3220
v  0.3725 3.4205 -3.0259
v  -0.5904 12.4473 0.6955
v  0.3725 11.1084 -3.0259
v  -1.8888 7.2645 5.7131
v  -1.5534 11.1084 4.4169
v  0.5756 4.5774 0.9972
v  0.0764 5.2716 2.9266
v  1.2487 7.2645 -1.6041
v  1.0749 5.2716 -0.9321
v  0.5756 9.9516 0.9972
v  1.0749 9.2574 -0.9321
v  -0.0975 7.2645 3.5986
v  0.0764 9.2574 2.9266
v  8.9161 13.0490 3.1554
v  9.0569 11.5547 -1.2397
v  4.3535 7.2645 7.9498
v  6.9075 11.5547 7.0672
v  7.2516 7.2645 -3.2504
v  9.0726 11.6329 -1.3001
v  8.9161 13.1490 3.1554
v  4.3298 7.2974 8.0413
v  -1.5702 7.2974 6.5146
v  6.8919 11.6329 7.1276
v  7.2752 7.2974 -3.3418
v  1.3752 7.2974 -4.8685
# 52 vertices

vn 0.9681 0.0000 0.2505
vn 0.0824 0.9444 -0.3184
vn -0.2366 0.3289 0.9142
vn -0.0824 -0.9444 0.3184
vn 0.2366 -0.3289 -0.9142
vn -0.2366 -0.3289 0.9142
vn 0.2366 0.3289 -0.9142
vn -0.0824 0.9444 0.3184
vn 0.0824 -0.9444 -0.3184
vn 0.8054 -0.2956 0.5137
vn 0.8719 -0.4346 0.2256
vn 0.9330 -0.2671 0.2414
vn 0.8840 -0.1914 0.4264
vn 0.9535 -0.2956 -0.0586
vn 0.9808 0.0000 -0.1952
vn 0.9999 -0.0000 -0.0171
vn 0.9799 -0.1914 0.0559
vn 0.9535 0.2956 -0.0586
vn 0.8719 0.4346 0.2256
vn 0.9330 0.2671 0.2414
vn 0.9799 0.1914 0.0559
vn 0.8054 0.2956 0.5137
vn 0.7630 0.0000 0.6464
vn 0.8661 -0.0000 0.5000
vn 0.8840 0.1914 0.4264
vn -0.0000 -1.0000 0.0000
vn 0.0000 -1.0000 -0.0000
vn -0.1771 -0.7071 0.6846
vn -0.1563 -0.7814 0.6042
vn 0.1771 -0.7071 -0.6846
vn 0.1563 -0.7814 -0.6042
vn 0.9750 -0.2197 -0.0338
vn 0.9678 -0.0011 0.2516
vn 0.9677 -0.0007 0.2522
vn 0.9718 -0.2315 -0.0459
vn 0.8365 -0.2224 0.5008
vn 0.8332 -0.4154 0.3650
vn 0.8324 -0.4145 0.3677
vn 0.8261 -0.2312 0.5139
vn 0.9047 -0.4183 0.0804
vn 0.9040 -0.4193 0.0831
# 41 vertex normals

vt 0.4319 0.0027 0.0000
vt 0.7003 0.0177 0.0000
vt 0.7004 0.0461 0.0000
vt 0.5102 0.1006 0.0000
vt 0.9938 0.0362 0.0000
vt 0.9788 0.3154 0.0000
vt 0.9693 0.3156 0.0000
vt 0.9139 0.1259 0.0000
vt 0.9602 0.6234 0.0000
vt 0.7002 0.6086 0.0000
vt 0.7002 0.5843 0.0000
vt 0.8903 0.5300 0.0000
vt 0.3988 0.5900 0.0000
vt 0.4131 0.3152 0.0000
vt 0.4310 0.3150 0.0000
vt 0.4867 0.5047 0.0000
vt 0.9980 0.5903 0.0000
vt 0.9168 0.5060 0.0000
vt 0.3940 0.0365 0.0000
vt 0.4838 0.1245 0.0000
vt 0.9602 0.0020 0.0000
vt 0.8906 0.1002 0.0000
vt 0.4318 0.6252 0.0000
vt 0.5099 0.5305 0.0000
vt 0.7002 0.0713 0.0000
vt 0.5276 0.1212 0.0000
vt 0.9451 0.3158 0.0000
vt 0.8930 0.1438 0.0000
vt 0.7003 0.5592 0.0000
vt 0.8729 0.5093 0.0000
vt 0.4554 0.3148 0.0000
vt 0.5076 0.4868 0.0000
vt 0.8952 0.4885 0.0000
vt 0.5053 0.1421 0.0000
vt 0.8727 0.1220 0.0000
vt 0.5279 0.5086 0.0000
vt 0.7000 0.0892 0.0000
vt 0.5292 0.1444 0.0000
vt 0.9286 0.3159 0.0000
vt 0.8695 0.1465 0.0000
vt 0.7005 0.5413 0.0000
vt 0.8714 0.4862 0.0000
vt 0.4718 0.3146 0.0000
vt 0.5310 0.4840 0.0000
vt 0.6986 0.2058 0.0000
vt 0.6143 0.2319 0.0000
vt 0.8138 0.3172 0.0000
vt 0.7830 0.2346 0.0000
vt 0.7019 0.4247 0.0000
vt 0.7862 0.3987 0.0000
vt 0.5867 0.3134 0.0000
vt 0.6175 0.3959 0.0000
vt 0.3992 0.3957 0.0000
vt 0.0020 0.3957 0.0000
vt 0.0020 0.2019 0.0000
vt 0.3580 0.2019 0.0000
vt 0.2620 0.7833 0.0000
vt 0.0020 0.7833 0.0000
vt 0.0020 0.5895 0.0000
vt 0.3580 0.5895 0.0000
vt 0.0020 0.0081 0.0000
vt 0.2620 0.0081 0.0000
vt 0.3617 0.1997 0.0000
vt 0.4034 0.3962 0.0000
vt 0.2620 0.7878 0.0000
vt 0.0020 0.7878 0.0000
vt 0.3623 0.5893 0.0000
vt 0.2658 0.7852 0.0000
vt 0.2658 0.0062 0.0000
vt 0.3623 0.2020 0.0000
vt 0.4034 0.3952 0.0000
vt 0.3617 0.5917 0.0000
vt 0.3817 0.0062 0.0000
vt 0.3817 0.2583 0.0000
vt 0.3773 0.2583 0.0000
vt 0.3773 0.0062 0.0000
# 76 texture coords

g glow
s off
f 23/27/15 24/28/15 25/29/15 26/30/15 
f 27/31/15 28/32/15 29/33/15 30/34/15 
f 31/35/15 32/36/15 33/37/15 34/38/15 
f 35/39/15 36/40/15 37/41/15 38/42/15 
f 28/32/15 31/43/15 34/44/15 29/33/15 
f 36/40/15 23/45/15 26/46/15 37/41/15 
f 24/28/15 27/47/15 30/48/15 25/29/15 
f 32/36/15 35/49/15 38/50/15 33/37/15 
f 26/30/15 25/29/15 39/51/15 40/52/15 
f 30/34/15 29/33/15 41/53/15 42/54/15 
f 34/38/15 33/37/15 43/55/15 44/56/15 
f 38/42/15 37/41/15 45/57/15 46/58/15 
f 29/33/15 34/44/15 44/59/15 41/53/15 
f 37/41/15 26/46/15 40/60/15 45/57/15 
f 25/29/15 30/48/15 42/61/15 39/51/15 
f 33/37/15 38/50/15 46/62/15 43/55/15 
f 40/52/16 39/51/16 47/63/16 48/64/16 
f 42/54/17 41/53/17 49/65/17 50/66/17 
f 44/56/18 43/55/18 51/67/18 52/68/18 
f 46/58/19 45/57/19 53/69/19 54/70/19 
f 41/53/20 44/59/20 52/68/20 49/65/20 
f 45/57/21 40/60/21 48/64/21 53/69/21 
f 39/51/22 42/61/22 50/66/22 47/63/22 
f 43/55/23 46/62/23 54/70/23 51/67/23 
s 1
f 48/64/24 47/63/25 55/71/26 56/72/27 
f 50/66/28 49/65/29 57/73/30 58/74/31 
f 52/68/32 51/67/33 59/75/34 60/76/35 
f 54/70/36 53/69/37 61/77/38 62/78/39 
f 49/65/29 52/68/32 60/76/35 57/73/30 
f 53/69/37 48/64/24 56/72/27 61/77/38 
f 47/63/25 50/66/28 58/74/31 55/71/26 
f 51/67/33 54/70/36 62/78/39 59/75/34 
f 60/76/35 59/75/34 62/78/39 61/77/38 
f 57/73/30 60/76/35 61/77/38 56/72/27 
f 58/74/31 57/73/30 56/72/27 55/71/26 
f 63/79/40 33/80/41 34/81/42 64/82/43 
f 65/83/19 37/84/19 38/85/44 66/86/45 
f 64/82/43 34/81/42 29/87/20 67/88/20 
f 66/86/45 38/85/44 33/80/41 63/79/40 
s 2
f 68/89/46 69/90/47 63/79/48 64/82/49 
s 4
f 70/91/18 71/92/18 37/84/18 65/83/18 
s 2
f 72/93/50 70/94/51 65/83/52 66/86/53 
f 73/95/54 68/96/46 64/82/49 67/88/55 
f 69/97/47 72/98/50 66/86/53 63/79/48 
s 4
f 74/99/23 73/100/23 67/101/23 29/102/23 
# 45 polygons

