# 3ds Max Wavefront OBJ Exporter v0.97b - (c)2007 guruware
# File Created: 25.01.2018 16:45:07

#
# object Plane001
#

v  -31.3356 0.0000 -32.0281
v  -31.3356 0.0000 31.2143
v  31.9068 0.0000 31.2143
v  31.9068 0.0000 -32.0281
# 4 vertices

vn 0.0000 1.0000 -0.0000
# 1 vertex normals

vt 0.0000 1.0000 0.0000
vt 0.0000 0.0000 0.0000
vt 1.0000 0.0000 0.0000
vt 1.0000 1.0000 0.0000
# 4 texture coords

g Plane001
s 1
f 1/1/1 2/2/1 3/3/1 4/4/1 
# 1 polygons

#
# object Box001
#

v  -9.3887 14.7618 7.9282
v  7.7202 14.7618 7.9282
v  7.7202 14.7618 -9.1807
v  -9.3887 14.7618 -9.1807
v  -9.3887 0.0000 7.9282
v  7.7202 0.0000 7.9282
v  7.7202 0.0000 -9.1807
v  -9.3887 0.0000 -9.1807
# 8 vertices

vn 0.0000 1.0000 -0.0000
vn 0.0000 0.0000 1.0000
vn 1.0000 0.0000 -0.0000
vn 0.0000 0.0000 -1.0000
vn -1.0000 0.0000 -0.0000
# 5 vertex normals

vt 0.3239 0.3239 0.0000
vt 0.6761 0.3239 0.0000
vt 0.6761 0.6761 0.0000
vt 0.3239 0.6761 0.0000
vt 0.3239 0.0200 0.0000
vt 0.6761 0.0200 0.0000
vt 0.9800 0.3239 0.0000
vt 0.9800 0.6761 0.0000
vt 0.6761 0.9800 0.0000
vt 0.3239 0.9800 0.0000
vt 0.0200 0.6761 0.0000
vt 0.0200 0.3239 0.0000
# 12 texture coords

g Box001
s 4
f 5/5/2 6/6/2 7/7/2 8/8/2 
s 8
f 9/9/3 10/10/3 6/6/3 5/5/3 
s 16
f 10/11/4 11/12/4 7/7/4 6/6/4 
s 32
f 11/13/5 12/14/5 8/8/5 7/7/5 
s 64
f 12/15/6 9/16/6 5/5/6 8/8/6 
# 5 polygons

